# xmcd CD database file
#
# Track frame offsets:
#        150
#        21925
#        42135
#        59832
#        80110
#        100247
#        117585
#        135430
#        152200
#        173843
#        198000
#        215650
#        232618
#        246171
#        276298
#
# Disc length: 4164 seconds
#
# Revision: 0
# Processed by: cddbd v1.5.2PL0 Copyright (c) Steve Scherf et al.
# Submitted via: CUERipper 2.1.5
#
DISCID=d310420f
DTITLE=Colin`Linden - Raised by Wolves
DYEAR=1997
DGENRE=Blues
TTITLE0=Too Late To Holler
TTITLE1=Love's Like Rain
TTITLE2=Anything, Anytime, Anywhere
TTITLE3=Raging River
TTITLE4=Easy Rider
TTITLE5=He Wasn't Fooling
TTITLE6=Before the Blues
TTITLE7=Love Everyone
TTITLE8=George Chuvalo
TTITLE9=Holy Fire
TTITLE10=Ten Years
TTITLE11=Ride With Me
TTITLE12=Twister
TTITLE13=Do Remember Me
TTITLE14=Data track
EXTD=
EXTT0=
EXTT1=
EXTT2=
EXTT3=
EXTT4=
EXTT5=
EXTT6=
EXTT7=
EXTT8=
EXTT9=
EXTT10=
EXTT11=
EXTT12=
EXTT13=
EXTT14=
PLAYORDER=
